<svg xmlns="http://www.w3.org/2000/svg" width="902.955" height="409.479"><path fill="#F8E7C9" d="M162.404 74.224s-28.943-3-37.52-14-7.576-35-7.576-35-14.156 8-11.578 49 84.578 48.636 84.578 48.636"/><path fill="#231F20" d="M189.846 127.838c-3.521-.328-86.291-8.547-89.105-53.301-2.695-42.888 12.381-52.689 14.109-53.666l7.83-4.426-.375 8.986c-.25 6.173.436 23.909 6.523 31.718 5.279 6.771 23.715 11.016 34.094 12.102l-1.033 9.946c-3.178-.33-31.338-3.575-40.947-15.899-4.496-5.768-6.691-14.135-7.746-21.599-1.998 6.78-3.43 17.021-2.475 32.211.639 10.162 8.074 24.53 39.867 35.27 20.035 6.769 39.986 8.683 40.186 8.701l-.928 9.957z"/><path fill="#F8E7C9" d="M269.408 74.224s28.943-3 37.52-14 7.576-35 7.576-35 14.156 8 11.578 49-84.578 48.636-84.578 48.636"/><path fill="#231F20" d="M241.969 127.838l-.93-9.957c.201-.019 20.303-1.96 40.34-8.753 17.479-5.926 38.559-16.847 39.713-35.218.955-15.19-.477-25.431-2.475-32.211-1.055 7.464-3.25 15.831-7.746 21.599-9.607 12.324-37.768 15.569-40.947 15.899l-1.031-9.947c10.381-1.085 28.812-5.33 34.092-12.101 6.088-7.809 6.773-25.545 6.523-31.721l-.361-8.974 7.818 4.416c1.729.977 16.805 10.778 14.107 53.666-2.814 44.756-85.582 52.974-89.103 53.302zm27.439-53.614l-.518-4.973.002-.001.516 4.974z"/><path fill="#974D22" d="M294.082 147.718l112.631 58.6s17.688 169.39-189.785 189.799h-1.146c-207.487-20.409-189.8-189.799-189.8-189.799l112.639-58.6"/><path fill="#231F20" d="M217.172 401.117l-1.879-.024c-69.861-6.871-122.225-31.118-155.633-72.066-45.152-55.343-38.938-120.481-38.65-123.228l.279-2.675 115.025-59.841 4.615 8.871-110.148 57.304c-.615 12.502-.906 67.33 36.717 113.356 31.631 38.696 81.605 61.676 148.529 68.303h.654c66.982-6.634 116.982-29.649 148.605-68.409 37.619-46.108 37.266-100.762 36.631-113.248l-110.143-57.306 4.615-8.871 115.016 59.841.279 2.675c.287 2.746 6.504 67.888-38.648 123.23-33.408 40.946-85.766 65.192-155.621 72.063l-.243.025z"/><path fill="#EE4921" d="M284.236 169.858l34.725 69.427s-9.521 64.627-102.033 74.832h-1.146c-92.518-10.205-102.043-74.832-102.043-74.832l34.725-69.427"/><path fill="#231F20" d="M217.227 319.557l-2.041-.033c-27.402-3.021-65.15-12.979-89.369-43.251-14.695-18.37-17.354-35.475-17.459-36.195l-.25-1.693 35.49-70.959 9.732 4.867-33.889 67.756c.992 4.279 4.611 16.792 15.262 29.91 17.553 21.617 44.932 34.644 81.379 38.719h.543c79.125-8.848 94.434-59.086 96.635-68.626l-33.889-67.759 9.732-4.867 35.488 70.959-.25 1.693c-.105.721-2.764 17.824-17.457 36.195-24.215 30.271-61.961 40.23-89.361 43.251l-.296.033z"/><path fill="#FFDCB6" d="M170.211 103.215l-30.621 57.837 30.353 30.119 36.317-11.752"/><path fill="#231F20" d="M168.465 197.369l-35.572-35.297 32.509-61.403 9.618 5.092-28.735 54.271 25.137 24.942 33.162-10.73 3.35 10.351z"/><path fill="#FFDCB6" d="M262.492 103.215l30.619 57.837-30.351 30.119-36.313-11.752"/><path fill="#231F20" d="M264.24 197.369l-39.469-12.774 3.352-10.351 33.158 10.73 25.135-24.942-28.732-54.271 9.615-5.092 32.508 61.403z"/><g><path fill="#8B3423" d="M223.729 186.222s43.533 42.857 47.615 59.866c4.08 17.007-5.441 50.101-23.809 61.786-18.367 11.684-30.607 4.199-15.646-8.725 14.967-12.926 19.387-40.137 19.387-40.137l-34.348-32.652h-1.146l-34.354 32.652s4.422 27.211 19.389 40.137c14.965 12.924 2.721 20.408-15.646 8.725-18.369-11.686-27.893-44.779-23.811-61.786 4.082-17.009 47.619-59.866 47.619-59.866"/><path fill="#231F20" d="M201.287 319.143c-5.393 0-12.084-2.255-19.037-6.679-19.818-12.607-30.961-47.732-26.182-67.646 4.32-18.002 44.523-57.974 49.094-62.473l7.633 7.755c-16.406 16.151-43.439 45.978-46.146 57.259-3.477 14.485 4.746 45.305 21.441 55.925 6.588 4.19 11.379 5.075 13.572 4.966-.527-.988-1.723-2.668-4.402-4.982-16.275-14.057-21.008-42.189-21.201-43.381l-.461-2.836 38.01-36.13h5.492l38.006 36.13-.459 2.836c-.193 1.191-4.926 29.324-21.201 43.381-2.68 2.314-3.875 3.993-4.404 4.982 2.143.109 6.982-.772 13.574-4.966 16.693-10.621 24.914-41.439 21.438-55.925-2.707-11.281-29.74-41.107-46.143-57.261l7.633-7.753c4.57 4.499 44.77 44.471 49.092 62.473 4.777 19.914-6.363 55.039-26.18 67.646-12.457 7.921-24.068 8.887-28.893 2.401-1.484-1.997-5.387-9.331 6.77-19.833 10.693-9.234 15.52-27.262 17.025-34.139l-29.004-27.572-29.004 27.57c1.518 6.879 6.369 24.939 17.021 34.141 12.16 10.501 8.256 17.834 6.771 19.832-2.13 2.866-5.587 4.279-9.855 4.279z"/></g><g><path fill="#231F20" d="M243.668 135.024h21.727v21.727h-21.727z"/></g><g><path fill="#231F20" d="M167.621 135.024h21.727v21.727h-21.727z"/></g><g><path fill="#9CB4CC" d="M216.461 208.379l12.707-17.208 8.844-37.602 48.299-30.614s-2.723-31.292-20.408-63.946c-17.098-31.562-47.535-31.98-49.547-31.974-2.016-.007-32.457.411-49.555 31.974-17.688 32.654-20.408 63.946-20.408 63.946l48.301 30.614 8.844 37.602 12.709 17.21.214-.002z"/><path fill="#231F20" d="M213.74 213.404l-14.834-20.088-8.613-36.615-49.146-31.149.264-3.029c.115-1.319 3.02-32.708 20.994-65.895 18.213-33.621 50.309-34.592 53.908-34.592 3.686 0 35.773.971 53.986 34.592 17.975 33.187 20.877 64.575 20.992 65.895l.264 3.029-49.143 31.149-8.611 36.615-14.799 20.041-5.262.047zm-5.57-24.377l8.184 11.082 8.184-11.082 9.074-38.588 47.355-30.017c-1.166-8.408-5.596-33.433-19.461-59.032-15.721-29.021-43.914-29.354-45.107-29.354-1.279 0-29.48.334-45.201 29.355-13.906 25.672-18.309 50.635-19.465 59.029l47.361 30.019 9.076 38.588z"/></g><g><ellipse fill="#8B3423" cx="216.518" cy="323.75" rx="16.984" ry="20.481"/><path fill="#231F20" d="M216.518 349.231c-12.121 0-21.984-11.431-21.984-25.481s9.863-25.482 21.984-25.482c12.123 0 21.984 11.432 21.984 25.482s-9.861 25.481-21.984 25.481zm0-40.964c-6.607 0-11.984 6.945-11.984 15.482 0 8.536 5.377 15.481 11.984 15.481 6.609 0 11.984-6.945 11.984-15.481 0-8.537-5.375-15.482-11.984-15.482z"/></g><g><ellipse fill="#8B3423" cx="216.349" cy="367.227" rx="14.919" ry="17.99"/><path fill="#231F20" d="M216.348 390.217c-10.982 0-19.918-10.313-19.918-22.99 0-12.678 8.936-22.991 19.918-22.991 10.984 0 19.92 10.313 19.92 22.991 0 12.677-8.936 22.99-19.92 22.99zm0-35.981c-5.469 0-9.918 5.828-9.918 12.991s4.449 12.99 9.918 12.99c5.471 0 9.92-5.827 9.92-12.99s-4.45-12.991-9.92-12.991z"/></g><g fill="#231F20"><path d="M473.376 249.893l-.141-20.58-.141-71.68-16.239-.42 14.7-8.26c.186 0 .396-.046.63-.14.231-.092.442-.186.63-.28a9.13 9.13 0 0 1 1.189-.49c.42-.14.862-.256 1.33-.35a88.77 88.77 0 0 0 3.08-.56c.652 0 1.26-.022 1.82-.07.561-.046 1.212-.07 1.96-.07l67.06-.14a28.356 28.356 0 0 1-1.75 1.4c-.514.375-1.049.7-1.609.98-.188.188-.398.35-.63.49-.234.14-.444.258-.63.35-.469.28-.959.584-1.471.91-.514.328-1.05.63-1.609.91-.654.374-1.284.724-1.891 1.05-.607.328-1.189.678-1.75 1.05-.748.374-1.494.7-2.24.98-.748.28-1.588.56-2.52.84a106.55 106.55 0 0 0-3.08.56c-.654 0-1.283.024-1.89.07-.608.048-1.284.07-2.03.07l-34.02-.14v46.06l20.859.84c.746.094 1.492.164 2.24.21.746.048 1.445.07 2.1.07.746.094 1.517.14 2.311.14.792 0 1.562.048 2.311.14h5.739c.933 0 1.866-.046 2.8-.14 1.492 0 2.87-.046 4.131-.14 1.26-.092 2.541-.186 3.85-.28 1.212-.092 2.449-.21 3.71-.35 1.26-.14 2.636-.302 4.13-.49-.654.56-1.26 1.05-1.82 1.47-.56.42-1.119.818-1.68 1.19-.654.468-1.33.91-2.029 1.33-.701.42-1.425.818-2.171 1.19-.374.188-.724.35-1.05.49-.328.14-.678.304-1.05.49-.935.468-1.82.864-2.66 1.19-.84.328-1.681.629-2.521.91-1.027.279-2.054.559-3.08.84a30.235 30.235 0 0 1-3.359.699c-1.494.28-2.848.49-4.061.631a30.76 30.76 0 0 1-3.5.209 32.315 32.315 0 0 1-2.939.141H492.695v32.199c0 1.309-.094 2.429-.28 3.36-.188.935-.42 1.868-.699 2.8-.28.561-.584 1.189-.91 1.891-.328.699-.678 1.422-1.051 2.17-.84 1.771-2.334 3.545-4.479 5.32a150.216 150.216 0 0 1-6.86 5.32c-.188.186-.373.35-.56.488a3.77 3.77 0 0 1-.56.352l-21.28 16.24-1.4-1.682 9.101-8.119a5.28 5.28 0 0 0 .77-.631c.232-.232.49-.488.77-.77 1.492-1.494 2.752-3.059 3.781-4.689 1.025-1.635 1.911-3.523 2.659-5.67.372-1.029.651-1.961.841-2.801.186-.84.371-1.68.559-2.52.093-1.027.162-2.029.211-3.01.046-.98.07-2.123.07-3.43v-.138z"/><path d="M551.775 198.933l-.561-71.68h-17.641l9.94-7.56c.187-.092.372-.186.56-.28.187-.092.373-.232.561-.42.279-.186.536-.372.77-.56.232-.186.537-.326.91-.42.372-.186.723-.28 1.051-.28h2.45l20.44.56.42 50.68.42 71.68 25.2 1.541c1.771.188 3.359.303 4.76.35 1.4.048 2.752.07 4.061.07a32.36 32.36 0 0 0 4.27 0 116.25 116.25 0 0 0 4.83-.42c2.24-.187 4.012-.49 5.32-.91a25.66 25.66 0 0 0 3.64-1.471l1.96-1.119c.652-.373 1.4-.793 2.24-1.261l.98.84c-.749.749-1.82 1.681-3.221 2.8a78.565 78.565 0 0 1-4.76 3.5 151.81 151.81 0 0 1-3.29 2.03c-1.169.7-2.358 1.33-3.57 1.89-2.054 1.029-3.989 1.82-5.81 2.381s-3.619.98-5.391 1.26c-2.52.465-5.088.699-7.699.699h-8.541l-33.879-.559-.42-53.341z"/><path d="M687.994 148.953l-.279.14c11.012 3.268 19.926 8.96 26.74 17.08 6.812 8.12 10.266 17.968 10.359 29.54V197.253c0 7.56-1.189 14.375-3.57 20.441-2.379 6.067-6.789 11.199-13.229 15.399l-19.739 12.88c-4.015 2.708-8.029 4.668-12.041 5.881a41.96 41.96 0 0 1-12.18 1.818c-3.92 0-7.864-.537-11.83-1.609-3.968-1.072-8.004-2.636-12.109-4.689-8.494-4.48-15.004-10.477-19.53-17.99-4.528-7.512-6.79-15.842-6.79-24.99 0-1.586.046-3.15.14-4.69.092-1.54.28-3.056.56-4.55 1.213-7.466 3.291-13.882 6.23-19.25 2.939-5.366 7.63-9.962 14.07-13.79l19.74-11.9c2.051-1.12 4.525-1.982 7.42-2.59 2.892-.606 6.02-.91 9.38-.91 1.96 0 3.989.094 6.09.28 2.101.188 4.222.514 6.37.98.652.188 1.352.374 2.1.56.746.188 1.446.374 2.1.56v-.141zm-53.06 65.52l.14.141c.467 1.494 1.702 3.289 3.711 5.389 2.006 2.101 4.596 4.318 7.77 6.65 3.452 2.521 7.396 4.948 11.83 7.28 4.432 2.334 8.982 4.154 13.65 5.46 1.865.469 3.731.84 5.6 1.12 1.865.28 3.686.42 5.46.42 2.8 0 5.506-.396 8.12-1.19 2.611-.791 4.992-2.121 7.14-3.99 2.427-2.145 4.433-5.879 6.021-11.199 1.586-5.32 2.38-11.152 2.38-17.5a58.434 58.434 0 0 0-.28-5.74 61.51 61.51 0 0 0-2.66-13.65c-1.4-4.432-3.5-8.376-6.3-11.83-2.894-3.64-6.628-6.65-11.2-9.03-4.574-2.38-9.288-4.176-14.14-5.39a75.428 75.428 0 0 0-10.149-2.03c-3.314-.42-6.324-.63-9.031-.63-2.613 0-4.854.164-6.719.49-1.869.328-3.221.77-4.061 1.33-2.801 1.868-5.158 6.138-7.07 12.81-1.914 6.674-2.869 13.884-2.869 21.63v2.94c.092 2.894.35 5.74.77 8.54s1.05 5.508 1.89 8.121v-.142z"/><path d="M736.153 227.633l-1.399-71.68-25.201.28 12.601-7.84c.187 0 .372-.046.56-.14.187-.092.326-.186.42-.28.561-.28 1.097-.512 1.61-.7a8.843 8.843 0 0 1 1.75-.42c.28-.092.536-.14.771-.14h3.29l23.66.28-.14 40.6a63.083 63.083 0 0 0 3.36-1.54l2.8-1.4c.187-.092.396-.186.63-.28.232-.092.441-.232.63-.42 1.492-.746 3.103-1.75 4.83-3.01 1.726-1.26 4.082-3.242 7.07-5.95 1.212-1.12 2.38-2.24 3.5-3.36 1.12-1.12 2.192-2.24 3.22-3.36a26.539 26.539 0 0 1 1.82-2.17c.652-.7 1.26-1.376 1.82-2.03a190.465 190.465 0 0 1 6.649-7.14c2.286-2.332 5.017-4.526 8.19-6.58 1.865-1.212 4.151-2.24 6.859-3.08a62.726 62.726 0 0 1 8.26-1.96 29.264 29.264 0 0 1 2.801-.42c.932-.092 1.82-.186 2.66-.28a117.955 117.955 0 0 0-4.061 3.71 243.502 243.502 0 0 1-3.641 3.43c-.188.188-.373.35-.559.49-.189.14-.375.304-.561.49a142.59 142.59 0 0 1-3.78 3.36 295.412 295.412 0 0 1-4.34 3.64 325.474 325.474 0 0 1-6.79 5.6 473.63 473.63 0 0 1-6.23 4.9c-.654.468-1.308.958-1.959 1.47a23.67 23.67 0 0 1-2.101 1.47 175.106 175.106 0 0 1-6.16 4.48 422.234 422.234 0 0 1-7 4.76l38.78 38.36c1.025 1.12 2.311 2.38 3.85 3.78a92.99 92.99 0 0 0 4.971 4.199c1.306 1.029 2.611 2.055 3.92 3.08a38.85 38.85 0 0 0 4.06 2.801 46.693 46.693 0 0 0 5.81 3.08c1.912.84 3.662 1.309 5.25 1.4H839.334c.745 0 1.516-.047 2.31-.141.792-.092 1.61-.232 2.45-.42a14.43 14.43 0 0 0 2.31-.49 63.884 63.884 0 0 1 2.31-.63c1.492-.466 2.822-.886 3.99-1.26 1.166-.372 2.076-.56 2.73-.56.279 0 .49.023.63.069.14.048.256.164.351.351.186.56-.771 1.308-2.871 2.239-2.1.935-4.41 2.054-6.93 3.36-.934.374-1.82.794-2.66 1.26-.84.469-1.634.934-2.38 1.4a148.11 148.11 0 0 1-3.71 2.31c-1.168.7-2.311 1.33-3.43 1.89a24.04 24.04 0 0 1-4.62 1.75c-1.589.42-3.313.631-5.181.631h-1.819c-3.828-.281-7.444-1.492-10.851-3.641-3.408-2.146-6.744-4.806-10.01-7.98a144.094 144.094 0 0 1-4.76-4.689 522.005 522.005 0 0 0-4.9-4.97c-.094-.092-.209-.21-.35-.351-.141-.14-.305-.301-.49-.49l-31.779-31.639c-.095 0-.28-.116-.561-.35a5.16 5.16 0 0 0-.98-.63 3.619 3.619 0 0 0-.489-.42 5.024 5.024 0 0 0-.49-.28 4.394 4.394 0 0 0-.771-.42 1.744 1.744 0 0 0-.629-.14.868.868 0 0 0-.49.14 1.047 1.047 0 0 0-.35.42c-.095.094-.141.234-.141.42v1.54l.42 46.48-18.48 8.26-.56-24.499z"/><path d="M853.751 116.193l.141.28v.14h.141c.371 0 .746.14 1.119.42l1.12.84c0 .094.046.164.14.21.092.048.141.118.141.21.186.094.35.21.49.35.14.14.256.258.35.35l5.88 4.9.841.84c.279.28.56.514.84.7 0 .094.021.164.069.21.046.048.116.07.21.07.746.748 1.422 1.4 2.03 1.96.606.56.956.934 1.05 1.12.092.094.141.21.141.35v.35c0 .56-.164 1.05-.49 1.47-.328.42-.725.818-1.19 1.19l-.42.42c-.188.094-.351.21-.489.35l-.351.35-7.84 7.98c-.095.188-.188.35-.28.49-.094.14-.234.258-.42.35l-.279.28c-.095.094-.141.188-.141.28-.28.188-.514.328-.7.42a1.24 1.24 0 0 1-.56.14c-.188-.092-.444-.21-.771-.35-.328-.14-.63-.35-.909-.63a10.751 10.751 0 0 1-.211-.21c-.048-.046-.117-.07-.209-.07a10.751 10.751 0 0 1-.211-.21c-.048-.046-.117-.116-.21-.21l-8.54-7.98a.67.67 0 0 1-.49-.21c-.14-.14-.304-.302-.49-.49a14.726 14.726 0 0 1-.279-.28 14.726 14.726 0 0 1-.279-.28c-.469-.466-.865-.91-1.191-1.33-.328-.42-.489-.77-.489-1.05.092-.28.325-.652.7-1.12a16.54 16.54 0 0 1 1.26-1.4l.279-.28.351-.35.351-.35 7.14-7.98c.092 0 .161-.022.21-.07.046-.046.07-.116.07-.21l.56-.56c.187-.186.372-.326.56-.42.187-.28.396-.49.631-.63.231-.14.441-.21.629-.21v-.14zm6.581 64.82v71.681l-19.18-9.521v-94.361h28.141l14.56 9.66h-23.521v22.541z"/></g><g fill="#6D6E71"><path d="M558.183 287.979c-.072.12-.15.211-.234.271s-.186.09-.305.09c-.137 0-.297-.067-.48-.204a8.542 8.542 0 0 0-.689-.449 5.687 5.687 0 0 0-.996-.451c-.389-.135-.858-.203-1.41-.203-.521 0-.979.07-1.375.209a2.96 2.96 0 0 0-.996.57c-.268.24-.469.522-.605.846a2.672 2.672 0 0 0-.204 1.051c0 .48.118.878.354 1.193.235.316.547.586.936.811s.828.418 1.32.582.996.334 1.512.51 1.02.374 1.512.594c.492.221.932.498 1.32.834s.7.748.936 1.236c.236.488.354 1.088.354 1.8 0 .753-.128 1.458-.384 2.118s-.631 1.234-1.122 1.723c-.492.488-1.097.871-1.812 1.152-.717.279-1.531.42-2.442.42-1.12 0-2.136-.203-3.048-.607s-1.692-.949-2.34-1.637l.672-1.104a.854.854 0 0 1 .234-.222.537.537 0 0 1 .305-.09c.104 0 .223.041.354.125s.282.19.45.318.359.268.576.42a4.76 4.76 0 0 0 1.679.738c.351.084.748.125 1.188.125.553 0 1.045-.075 1.477-.227a3.137 3.137 0 0 0 1.098-.643 2.76 2.76 0 0 0 .69-.99c.159-.384.239-.812.239-1.283 0-.521-.117-.947-.354-1.279a2.958 2.958 0 0 0-.93-.834 6.484 6.484 0 0 0-1.32-.569c-.496-.156-1-.315-1.512-.479s-1.016-.354-1.512-.57a4.893 4.893 0 0 1-1.32-.84 3.84 3.84 0 0 1-.93-1.291c-.236-.516-.354-1.153-.354-1.914a4.562 4.562 0 0 1 1.385-3.276 5.076 5.076 0 0 1 1.668-1.057c.66-.264 1.418-.396 2.274-.396.96 0 1.834.152 2.622.456a6.219 6.219 0 0 1 2.082 1.32l-.563 1.103zM566.175 302.487h-2.328v-17.195h2.328v17.195zM589.899 285.292v17.195h-2.04v-12.636c0-.168.006-.348.018-.54.013-.191.026-.388.043-.588l-5.904 10.752c-.184.36-.465.54-.84.54h-.336c-.377 0-.656-.18-.84-.54l-6.024-10.8c.048.425.071.815.071 1.176v12.636h-2.039v-17.195h1.716c.208 0 .368.02.479.06.112.04.221.152.324.337l5.939 10.584c.097.191.19.392.283.6.092.208.178.42.258.636.08-.216.164-.431.252-.642a6.65 6.65 0 0 1 .287-.606l5.832-10.571c.097-.185.203-.297.318-.337.116-.04.278-.06.486-.06h1.717zM600.807 285.292c1.088 0 2.034.126 2.838.378s1.47.61 1.998 1.073a4.352 4.352 0 0 1 1.183 1.681c.26.656.39 1.388.39 2.196 0 .8-.14 1.531-.421 2.195a4.722 4.722 0 0 1-1.229 1.717c-.54.479-1.208.854-2.004 1.121-.796.269-1.714.402-2.754.402h-2.76v6.432h-2.316v-17.195h5.075zm0 8.916c.664 0 1.25-.088 1.758-.264.509-.176.937-.422 1.284-.738s.609-.694.786-1.135a3.87 3.87 0 0 0 .264-1.451c0-1.096-.338-1.952-1.014-2.568-.677-.615-1.702-.924-3.078-.924h-2.76v7.08h2.76zM621.339 300.532v1.955h-9.756v-17.195h2.316v15.24h7.44zM635.955 300.591l-.012 1.896h-10.596v-17.195h10.596v1.896h-8.268v5.711h6.695v1.824h-6.695v5.868h8.28zM684.915 285.292v17.195h-2.328v-7.824h-9.276v7.824h-2.328v-17.195h2.328v7.668h9.276v-7.668h2.328zM702.375 287.247h-5.568v15.24h-2.316v-15.24h-5.58v-1.955h13.465v1.955zM724.25 285.292v17.195h-2.039v-12.636c0-.168.006-.348.018-.54.012-.191.025-.388.042-.588l-5.903 10.752c-.185.36-.465.54-.841.54h-.336c-.376 0-.655-.18-.84-.54l-6.024-10.8c.049.425.072.815.072 1.176v12.636h-2.04v-17.195h1.716c.209 0 .368.02.48.06.111.04.22.152.324.337l5.939 10.584c.096.191.189.392.282.6.092.208.178.42.258.636.08-.216.164-.431.253-.642a6.65 6.65 0 0 1 .287-.606l5.832-10.571c.096-.185.202-.297.318-.337.115-.04.277-.06.486-.06h1.716zM739.838 300.532v1.955h-9.757v-17.195h2.316v15.24h7.441zM778.538 285.292c1.088 0 2.034.126 2.838.378s1.47.61 1.998 1.073a4.352 4.352 0 0 1 1.183 1.681c.26.656.39 1.388.39 2.196 0 .8-.14 1.531-.421 2.195a4.722 4.722 0 0 1-1.229 1.717c-.54.479-1.208.854-2.004 1.121-.796.269-1.714.402-2.754.402h-2.76v6.432h-2.316v-17.195h5.075zm0 8.916c.664 0 1.25-.088 1.758-.264.509-.176.937-.422 1.284-.738s.609-.694.786-1.135a3.87 3.87 0 0 0 .264-1.451c0-1.096-.338-1.952-1.014-2.568-.677-.615-1.702-.924-3.078-.924h-2.76v7.08h2.76zM802.093 302.487h-1.799c-.209 0-.377-.051-.504-.156a.943.943 0 0 1-.289-.395l-1.607-4.152h-7.717l-1.607 4.152a.858.858 0 0 1-.275.383.765.765 0 0 1-.504.168h-1.801l6.877-17.195h2.352l6.874 17.195zm-4.847-6.383l-2.699-6.996a15.944 15.944 0 0 1-.504-1.609 13.115 13.115 0 0 1-.517 1.62l-2.7 6.984h6.42zM818.509 302.487h-2.064c-.424 0-.735-.164-.936-.492l-4.464-6.144a1.32 1.32 0 0 0-.438-.413c-.155-.084-.397-.127-.726-.127h-1.764v7.176h-2.316v-17.195h4.86c1.088 0 2.027.109 2.82.33.791.22 1.445.538 1.961.953.517.416.898.918 1.146 1.507.248.588.372 1.246.372 1.974 0 .608-.097 1.176-.288 1.704s-.47 1.002-.834 1.422c-.363.42-.809.778-1.332 1.074s-1.117.521-1.781.672c.295.168.551.412.768.731l5.016 6.828zm-7.943-8.867c.672 0 1.266-.082 1.781-.246s.948-.396 1.297-.696c.348-.3.609-.657.785-1.073s.264-.877.264-1.381c0-1.023-.336-1.796-1.008-2.316-.672-.52-1.68-.779-3.023-.779h-2.544v6.492h2.448zM831.074 287.979c-.072.12-.15.211-.234.271s-.186.09-.306.09c-.136 0-.296-.067-.479-.204-.185-.136-.414-.285-.69-.449s-.608-.314-.996-.451c-.388-.135-.858-.203-1.41-.203-.521 0-.978.07-1.374.209-.396.141-.729.33-.996.57s-.47.522-.605.846a2.673 2.673 0 0 0-.205 1.051c0 .48.119.878.354 1.193.235.316.548.586.937.811.388.225.828.418 1.32.582.491.164.995.334 1.512.51.516.176 1.02.374 1.512.594.492.221.932.498 1.32.834.388.336.699.748.936 1.236s.354 1.088.354 1.8a5.8 5.8 0 0 1-.383 2.118c-.257.66-.631 1.234-1.123 1.723s-1.096.871-1.812 1.152c-.716.279-1.53.42-2.442.42-1.119 0-2.136-.203-3.048-.607a7.16 7.16 0 0 1-2.34-1.637l.672-1.104a.854.854 0 0 1 .234-.222.54.54 0 0 1 .306-.09c.104 0 .223.041.354.125.133.084.283.19.451.318s.359.268.575.42.462.292.738.42.59.234.942.318c.352.084.748.125 1.188.125a4.44 4.44 0 0 0 1.477-.227 3.146 3.146 0 0 0 1.098-.643c.3-.276.529-.605.689-.99.16-.384.24-.812.24-1.283 0-.521-.118-.947-.354-1.279a2.97 2.97 0 0 0-.93-.834 6.484 6.484 0 0 0-1.32-.569c-.496-.156-1-.315-1.512-.479a15.953 15.953 0 0 1-1.513-.57 4.872 4.872 0 0 1-1.319-.84 3.843 3.843 0 0 1-.931-1.291c-.235-.516-.354-1.153-.354-1.914 0-.607.119-1.195.354-1.764a4.5 4.5 0 0 1 1.032-1.512 5.065 5.065 0 0 1 1.668-1.057c.66-.264 1.418-.396 2.273-.396.961 0 1.834.152 2.623.456a6.229 6.229 0 0 1 2.082 1.32l-.565 1.103zM847.345 300.591l-.012 1.896h-10.597v-17.195h10.597v1.896h-8.269v5.711h6.696v1.824h-6.696v5.868h8.281zM864.746 302.487h-2.064c-.424 0-.736-.164-.936-.492l-4.465-6.144c-.136-.192-.281-.329-.438-.413s-.398-.127-.727-.127h-1.764v7.176h-2.316v-17.195h4.861c1.088 0 2.027.109 2.819.33.792.22 1.446.538 1.962.953.516.416.898.918 1.146 1.507.248.588.371 1.246.371 1.974 0 .608-.096 1.176-.287 1.704a4.52 4.52 0 0 1-.834 1.422c-.364.42-.809.778-1.332 1.074a6.561 6.561 0 0 1-1.782.672c.296.168.552.412.769.731l5.017 6.828zm-7.945-8.867c.672 0 1.267-.082 1.782-.246s.947-.396 1.296-.696.61-.657.786-1.073.264-.877.264-1.381c0-1.023-.336-1.796-1.008-2.316-.672-.52-1.68-.779-3.023-.779h-2.545v6.492h2.448z"/></g><g><path fill="#6D6E71" d="M754.99 288.277l.057.116v.059h.059c.154 0 .311.059.467.175l.467.35c0 .039.018.068.057.087.039.021.059.049.059.088a.802.802 0 0 1 .205.146l.145.146 2.447 2.039.35.351c.117.116.234.214.35.291 0 .04.01.068.029.087.02.021.049.029.088.029.311.312.592.583.846.816.252.232.396.389.436.466.039.04.059.087.059.146v.146a.971.971 0 0 1-.203.611 3.02 3.02 0 0 1-.496.496l-.174.174a.802.802 0 0 0-.205.146l-.145.145-3.264 3.322a1.741 1.741 0 0 1-.117.203.446.446 0 0 1-.174.146l-.117.116c-.039.04-.059.079-.059.116-.115.078-.213.137-.291.176s-.156.058-.232.058a9.802 9.802 0 0 0-.32-.146 1.202 1.202 0 0 1-.379-.262l-.088-.088c-.02-.02-.049-.029-.088-.029a3.565 3.565 0 0 1-.088-.088 1.816 1.816 0 0 1-.086-.087l-3.555-3.321a.28.28 0 0 1-.205-.088c-.057-.059-.125-.125-.203-.203l-.117-.117a4.187 4.187 0 0 1-.115-.116c-.195-.194-.359-.379-.496-.554s-.203-.32-.203-.438c.037-.115.135-.271.291-.466a7.21 7.21 0 0 1 .523-.583c.039-.037.078-.077.117-.116l.146-.146c.057-.059.105-.106.145-.146l2.973-3.321c.037 0 .066-.01.086-.029s.029-.049.029-.088l.234-.232a.879.879 0 0 1 .232-.176c.078-.116.164-.203.262-.262s.184-.088.264-.088v-.057z"/></g><g><path fill="#6D6E71" d="M651.99 288.277l.059.116v.059h.059c.154 0 .311.059.465.175l.467.35c0 .039.02.068.059.087.037.021.059.049.059.088a.808.808 0 0 1 .203.146l.146.146 2.447 2.039c.115.117.232.234.35.351.115.116.232.214.35.291 0 .04.008.068.029.087.018.021.047.029.086.029.311.312.592.583.846.816.252.232.398.389.438.466.037.04.059.087.059.146v.146c0 .232-.068.437-.205.611s-.301.34-.494.496l-.176.174a.774.774 0 0 0-.203.146l-.146.145-3.262 3.322c-.041.078-.08.146-.117.203a.439.439 0 0 1-.176.146l-.115.116c-.039.04-.059.079-.059.116a3.128 3.128 0 0 1-.291.176.518.518 0 0 1-.234.058c-.078-.038-.184-.087-.32-.146s-.262-.146-.379-.262c-.039-.039-.068-.068-.086-.088-.021-.02-.051-.029-.088-.029a3.565 3.565 0 0 1-.088-.088 3.144 3.144 0 0 1-.088-.087l-3.555-3.321c-.078 0-.145-.029-.203-.088s-.127-.125-.205-.203l-.115-.117-.117-.116a6.024 6.024 0 0 1-.496-.554c-.135-.175-.203-.32-.203-.438.039-.115.137-.271.291-.466.156-.194.33-.388.525-.583l.115-.116.146-.146.146-.146 2.971-3.321c.039 0 .068-.01.088-.029s.029-.049.029-.088l.232-.232a.886.886 0 0 1 .234-.176.828.828 0 0 1 .262-.262.512.512 0 0 1 .262-.088v-.057z"/></g></svg>