<?xml version="1.0" encoding="UTF-8" standalone="no"?>
<svg
   xmlns:dc="http://purl.org/dc/elements/1.1/"
   xmlns:cc="http://creativecommons.org/ns#"
   xmlns:rdf="http://www.w3.org/1999/02/22-rdf-syntax-ns#"
   xmlns:svg="http://www.w3.org/2000/svg"
   xmlns="http://www.w3.org/2000/svg"
   xmlns:sodipodi="http://sodipodi.sourceforge.net/DTD/sodipodi-0.dtd"
   xmlns:inkscape="http://www.inkscape.org/namespaces/inkscape"
   width="103.59972mm"
   height="101.77779mm"
   viewBox="0 0 103.59972 101.77779"
   version="1.1"
   id="svg955"
   inkscape:version="1.0.1 (3bc2e813f5, 2020-09-07)"
   sodipodi:docname="floki-logo.svg">
  <defs
     id="defs949" />
  <sodipodi:namedview
     id="base"
     pagecolor="#ffffff"
     bordercolor="#666666"
     borderopacity="1.0"
     inkscape:pageopacity="0.0"
     inkscape:pageshadow="2"
     inkscape:zoom="0.35"
     inkscape:cx="184.35043"
     inkscape:cy="460.90743"
     inkscape:document-units="mm"
     inkscape:current-layer="layer1"
     inkscape:document-rotation="0"
     showgrid="false"
     fit-margin-top="0"
     fit-margin-left="0"
     fit-margin-right="0"
     fit-margin-bottom="0"
     inkscape:window-width="1536"
     inkscape:window-height="800"
     inkscape:window-x="0"
     inkscape:window-y="27"
     inkscape:window-maximized="1" />
  <metadata
     id="metadata952">
    <rdf:RDF>
      <cc:Work
         rdf:about="">
        <dc:format>image/svg+xml</dc:format>
        <dc:type
           rdf:resource="http://purl.org/dc/dcmitype/StillImage" />
        <dc:title></dc:title>
      </cc:Work>
    </rdf:RDF>
  </metadata>
  <g
     inkscape:label="Layer 1"
     inkscape:groupmode="layer"
     id="layer1"
     transform="translate(-57.057283,-26.218243)">
    <path
       fill="#f8e7c9"
       d="m 94.584759,41.505603 c 0,0 -7.657835,-0.79375 -9.927167,-3.704166 -2.26933,-2.910417 -2.004482,-9.260417 -2.004482,-9.260417 0,0 -3.745442,2.116667 -3.063346,12.964583 0.682096,10.847917 22.377926,12.868275 22.377926,12.868275"
       id="path2"
       style="stroke-width:0.264583" />
    <path
       fill="#231f20"
       d="M 101.84546,55.690974 C 100.91386,55.604191 79.014296,53.42958 78.269758,41.588418 77.556706,30.240968 81.545564,27.647787 82.002764,27.389289 l 2.071687,-1.171046 -0.09922,2.377546 c -0.06615,1.633273 0.115358,6.325923 1.725877,8.392054 1.396735,1.791494 6.274594,2.91465 9.020704,3.201987 l -0.273314,2.631546 c -0.840846,-0.08731 -8.291513,-0.945885 -10.833894,-4.20661 -1.189566,-1.526117 -1.770326,-3.739886 -2.049462,-5.714736 -0.528637,1.793875 -0.90752,4.503473 -0.654843,8.522494 0.169068,2.688696 2.136246,6.490229 10.548142,9.331854 5.300927,1.790965 10.579629,2.297377 10.632549,2.30214 z"
       id="path4"
       style="stroke-width:0.264583" />
    <path
       fill="#f8e7c9"
       d="m 122.89623,41.505603 c 0,0 7.65784,-0.79375 9.92717,-3.704166 2.26933,-2.910417 2.00448,-9.260417 2.00448,-9.260417 0,0 3.74545,2.116667 3.06335,12.964583 -0.6821,10.847917 -22.37793,12.868275 -22.37793,12.868275"
       id="path6"
       style="stroke-width:0.264583" />
    <path
       fill="#231f20"
       d="m 115.63633,55.690974 -0.24606,-2.634456 c 0.0532,-0.005 5.37184,-0.518583 10.67329,-2.315898 4.62465,-1.567921 10.20207,-4.457435 10.5074,-9.318096 0.25268,-4.019021 -0.12621,-6.728619 -0.65484,-8.522494 -0.27914,1.97485 -0.8599,4.188619 -2.04947,5.714736 -2.54185,3.260725 -9.99278,4.119298 -10.83389,4.20661 l -0.27279,-2.63181 c 2.74664,-0.287073 7.62318,-1.410229 9.02018,-3.201723 1.61078,-2.066131 1.79202,-6.758781 1.72588,-8.392848 l -0.0955,-2.374371 2.06851,1.1684 c 0.45747,0.258498 4.44633,2.851679 3.73248,14.199129 -0.74454,11.841692 -22.64357,14.016038 -23.57517,14.102821 z m 7.2599,-14.185371 -0.13705,-1.315773 5.3e-4,-2.64e-4 z"
       id="path8"
       style="stroke-width:0.264583" />
    <path
       fill="#974d22"
       d="m 129.42456,60.950891 29.80029,15.504583 c 0,0 4.67995,44.817766 -50.21395,50.217646 h -0.30321 C 53.810087,121.27324 58.489773,76.455474 58.489773,76.455474 L 88.292174,60.950891"
       id="path10"
       style="stroke-width:0.264583" />
    <path
       fill="#231f20"
       d="m 109.07546,127.99604 -0.49715,-0.006 C 90.094251,126.17174 76.23961,119.75639 67.40041,108.92223 55.453944,94.279395 57.098064,77.044966 57.174264,76.318155 l 0.07382,-0.70776 30.433697,-15.832931 1.221052,2.347119 -29.143324,15.161683 c -0.162719,3.307821 -0.239712,17.814396 9.714706,29.992104 8.369036,10.23832 21.591322,16.31845 39.298295,18.07184 h 0.17304 c 17.72232,-1.75525 30.95149,-7.84463 39.31841,-18.09988 9.95335,-12.19941 9.85995,-26.659947 9.69194,-29.963535 l -29.14199,-15.162212 1.22105,-2.347119 30.43131,15.832931 0.0738,0.707761 c 0.0759,0.726545 1.72085,17.962033 -10.22561,32.604604 -8.8392,10.83363 -22.69226,17.24872 -41.17473,19.06667 z"
       id="path12"
       style="stroke-width:0.264583" />
    <path
       fill="#ee4921"
       d="m 126.81948,66.808766 9.18765,18.369227 c 0,0 -2.5191,17.099227 -26.99623,19.799297 h -0.30321 C 84.228967,102.27722 81.708812,85.177993 81.708812,85.177993 l 9.187655,-18.369227"
       id="path14"
       style="stroke-width:0.264583" />
    <path
       fill="#231f20"
       d="m 109.09001,106.41663 -0.54001,-0.009 c -7.25012,-0.79934 -17.237608,-3.43406 -23.645551,-11.443529 -3.888051,-4.860396 -4.591578,-9.386093 -4.61936,-9.576593 l -0.06615,-0.44794 9.390062,-18.774569 2.574925,1.287727 -8.966464,17.927109 c 0.262467,1.132152 1.219993,4.442883 4.03807,7.913687 4.644231,5.719498 11.888258,9.166228 21.531528,10.244398 h 0.14367 c 20.93516,-2.34103 24.98566,-15.633167 25.56801,-18.157292 l -8.96646,-17.927902 2.57492,-1.287727 9.38954,18.774569 -0.0661,0.44794 c -0.0278,0.190764 -0.73131,4.715933 -4.61883,9.576593 -6.40689,8.009199 -16.39385,10.644189 -23.64344,11.443489 z"
       id="path16"
       style="stroke-width:0.264583" />
    <path
       fill="#ffdcb6"
       d="m 96.650361,49.176139 -8.101806,15.302706 8.030898,7.968985 9.608877,-3.109383"
       id="path18"
       style="stroke-width:0.264583" />
    <path
       fill="#231f20"
       d="m 96.188399,74.087718 -9.411759,-9.338998 8.60134,-16.24621 2.544762,1.347258 -7.602802,14.359202 6.650832,6.599238 8.774108,-2.83898 0.88636,2.738703 z"
       id="path20"
       style="stroke-width:0.264583" />
    <path
       fill="#ffdcb6"
       d="m 121.06638,49.176139 8.10127,15.302706 -8.03037,7.968985 -9.60781,-3.109383"
       id="path22"
       style="stroke-width:0.264583" />
    <path
       fill="#231f20"
       d="m 121.52887,74.087718 -10.44284,-3.379788 0.88688,-2.738702 8.77306,2.83898 6.6503,-6.599238 -7.60201,-14.359202 2.54397,-1.347258 8.60107,16.24621 z"
       id="path24"
       style="stroke-width:0.264583" />
    <g
       id="g30"
       transform="matrix(0.26458333,0,0,0.26458333,51.615369,21.86717)">
      <path
         fill="#8b3423"
         d="m 223.729,186.222 c 0,0 43.533,42.857 47.615,59.866 4.08,17.007 -5.441,50.101 -23.809,61.786 -18.367,11.684 -30.607,4.199 -15.646,-8.725 14.967,-12.926 19.387,-40.137 19.387,-40.137 L 216.928,226.36 h -1.146 l -34.354,32.652 c 0,0 4.422,27.211 19.389,40.137 14.965,12.924 2.721,20.408 -15.646,8.725 -18.369,-11.686 -27.893,-44.779 -23.811,-61.786 4.082,-17.009 47.619,-59.866 47.619,-59.866"
         id="path26" />
      <path
         fill="#231f20"
         d="m 201.287,319.143 c -5.393,0 -12.084,-2.255 -19.037,-6.679 -19.818,-12.607 -30.961,-47.732 -26.182,-67.646 4.32,-18.002 44.523,-57.974 49.094,-62.473 l 7.633,7.755 c -16.406,16.151 -43.439,45.978 -46.146,57.259 -3.477,14.485 4.746,45.305 21.441,55.925 6.588,4.19 11.379,5.075 13.572,4.966 -0.527,-0.988 -1.723,-2.668 -4.402,-4.982 -16.275,-14.057 -21.008,-42.189 -21.201,-43.381 l -0.461,-2.836 38.01,-36.13 h 5.492 l 38.006,36.13 -0.459,2.836 c -0.193,1.191 -4.926,29.324 -21.201,43.381 -2.68,2.314 -3.875,3.993 -4.404,4.982 2.143,0.109 6.982,-0.772 13.574,-4.966 16.693,-10.621 24.914,-41.439 21.438,-55.925 -2.707,-11.281 -29.74,-41.107 -46.143,-57.261 l 7.633,-7.753 c 4.57,4.499 44.77,44.471 49.092,62.473 4.777,19.914 -6.363,55.039 -26.18,67.646 -12.457,7.921 -24.068,8.887 -28.893,2.401 -1.484,-1.997 -5.387,-9.331 6.77,-19.833 10.693,-9.234 15.52,-27.262 17.025,-34.139 l -29.004,-27.572 -29.004,27.57 c 1.518,6.879 6.369,24.939 17.021,34.141 12.16,10.501 8.256,17.834 6.771,19.832 -2.13,2.866 -5.587,4.279 -9.855,4.279 z"
         id="path28" />
    </g>
    <g
       id="g34"
       transform="matrix(0.26458333,0,0,0.26458333,51.615369,21.86717)">
      <path
         fill="#231f20"
         d="m 243.668,135.024 h 21.727 v 21.727 h -21.727 z"
         id="path32" />
    </g>
    <g
       id="g38"
       transform="matrix(0.26458333,0,0,0.26458333,51.615369,21.86717)">
      <path
         fill="#231f20"
         d="m 167.621,135.024 h 21.727 v 21.727 h -21.727 z"
         id="path36" />
    </g>
    <g
       id="g44"
       transform="matrix(0.26458333,0,0,0.26458333,51.615369,21.86717)">
      <path
         fill="#9cb4cc"
         d="m 216.461,208.379 12.707,-17.208 8.844,-37.602 48.299,-30.614 c 0,0 -2.723,-31.292 -20.408,-63.946 -17.098,-31.562 -47.535,-31.98 -49.547,-31.974 -2.016,-0.007 -32.457,0.411 -49.555,31.974 -17.688,32.654 -20.408,63.946 -20.408,63.946 l 48.301,30.614 8.844,37.602 12.709,17.21 z"
         id="path40" />
      <path
         fill="#231f20"
         d="m 213.74,213.404 -14.834,-20.088 -8.613,-36.615 -49.146,-31.149 0.264,-3.029 c 0.115,-1.319 3.02,-32.708 20.994,-65.895 18.213,-33.621 50.309,-34.592 53.908,-34.592 3.686,0 35.773,0.971 53.986,34.592 17.975,33.187 20.877,64.575 20.992,65.895 l 0.264,3.029 -49.143,31.149 -8.611,36.615 -14.799,20.041 z m -5.57,-24.377 8.184,11.082 8.184,-11.082 9.074,-38.588 47.355,-30.017 C 279.801,112.014 275.371,86.989 261.506,61.39 245.785,32.369 217.592,32.036 216.399,32.036 c -1.279,0 -29.48,0.334 -45.201,29.355 -13.906,25.672 -18.309,50.635 -19.465,59.029 l 47.361,30.019 z"
         id="path42" />
    </g>
    <g
       id="g50"
       transform="matrix(0.26458333,0,0,0.26458333,51.615369,21.86717)">
      <ellipse
         fill="#8b3423"
         cx="216.51801"
         cy="323.75"
         rx="16.983999"
         ry="20.481001"
         id="ellipse46" />
      <path
         fill="#231f20"
         d="m 216.518,349.231 c -12.121,0 -21.984,-11.431 -21.984,-25.481 0,-14.05 9.863,-25.482 21.984,-25.482 12.123,0 21.984,11.432 21.984,25.482 0,14.05 -9.861,25.481 -21.984,25.481 z m 0,-40.964 c -6.607,0 -11.984,6.945 -11.984,15.482 0,8.536 5.377,15.481 11.984,15.481 6.609,0 11.984,-6.945 11.984,-15.481 0,-8.537 -5.375,-15.482 -11.984,-15.482 z"
         id="path48" />
    </g>
    <g
       id="g56"
       transform="matrix(0.26458333,0,0,0.26458333,51.615369,21.86717)">
      <ellipse
         fill="#8b3423"
         cx="216.349"
         cy="367.22699"
         rx="14.919"
         ry="17.99"
         id="ellipse52" />
      <path
         fill="#231f20"
         d="m 216.348,390.217 c -10.982,0 -19.918,-10.313 -19.918,-22.99 0,-12.678 8.936,-22.991 19.918,-22.991 10.984,0 19.92,10.313 19.92,22.991 0,12.677 -8.936,22.99 -19.92,22.99 z m 0,-35.981 c -5.469,0 -9.918,5.828 -9.918,12.991 0,7.163 4.449,12.99 9.918,12.99 5.471,0 9.92,-5.827 9.92,-12.99 0,-7.163 -4.45,-12.991 -9.92,-12.991 z"
         id="path54" />
    </g>
  </g>
</svg>
